<?xml version="1.0" standalone="no"?>
<!DOCTYPE svg PUBLIC "-//W3C//DTD SVG 20010904//EN"
 "http://www.w3.org/TR/2001/REC-SVG-20010904/DTD/svg10.dtd">
<svg version="1.0" xmlns="http://www.w3.org/2000/svg"
 width="700.000000pt" height="700.000000pt" viewBox="0 0 700.000000 700.000000"
 preserveAspectRatio="xMidYMid meet">
<metadata>
Created by potrace 1.11, written by Peter Selinger 2001-2013
</metadata>
<g transform="translate(0.000000,700.000000) scale(0.100000,-0.100000)"
fill="#000000" stroke="none">
<path d="M5788 6995 c-2 -2 -21 -6 -43 -8 -124 -14 -306 -82 -430 -162 -57
-36 -495 -462 -495 -481 0 -12 1512 -1524 1524 -1524 18 0 444 437 478 490 61
95 128 245 143 320 2 8 9 44 16 80 15 71 18 285 6 365 -24 158 -109 361 -204
483 -168 218 -378 353 -653 419 -57 13 -332 28 -342 18z"/>
<path d="M2456 3990 c-2157 -2159 -2020 -2016 -2042 -2125 -2 -11 -33 -153
-70 -315 -63 -282 -89 -401 -98 -445 -2 -11 -19 -83 -36 -160 -17 -77 -33
-149 -36 -160 -12 -61 -46 -215 -54 -245 -8 -30 -21 -87 -35 -155 -2 -11 -13
-63 -25 -115 -44 -197 -58 -265 -56 -267 1 -1 71 14 156 33 85 19 164 36 175
38 11 2 92 20 180 40 169 39 189 43 233 51 15 3 35 8 44 11 9 3 25 7 36 9 11
2 64 13 118 25 55 12 107 23 117 25 10 2 26 6 35 9 9 3 28 7 42 10 14 2 88 19
165 36 77 17 151 34 164 36 12 3 53 12 90 20 36 9 77 18 91 20 14 3 43 10 65
16 22 6 54 12 70 15 17 3 65 13 108 23 l78 19 2020 2019 c1110 1111 2019 2022
2019 2026 0 9 -1519 1526 -1527 1526 -5 -1 -916 -910 -2027 -2020z m903 -1006
l-1530 -1530 -188 185 -188 186 1531 1532 1531 1533 187 -187 188 -188 -1531
-1531z"/>
</g>
</svg>
